<svg width="68" height="74" viewBox="0 0 68 74" fill="none" xmlns="http://www.w3.org/2000/svg">
<path fill-rule="evenodd" clip-rule="evenodd" d="M44.5999 68.5278C50.9999 66.7318 57.7005 65.8258 64.2005 64.9958C65.6005 64.8218 66.9003 65.7928 67.0003 67.1608C67.2003 68.5298 66.1997 69.7818 64.8997 69.9557C58.5997 70.7548 52.1003 71.6097 46.0003 73.3387C44.7003 73.7137 43.2997 72.9418 42.8997 71.6138C42.4997 70.2868 43.2999 68.9038 44.5999 68.5278Z" fill="black"/>
<path fill-rule="evenodd" clip-rule="evenodd" d="M25.2008 43.0648C35.5008 32.5538 47.1008 23.3958 57.2008 12.6028C58.1008 11.5948 59.7008 11.5408 60.7008 12.4818C61.7008 13.4238 61.8004 15.0078 60.8004 16.0158C50.7004 26.8398 39.1004 36.0278 28.8004 46.5698C27.8004 47.5538 26.2008 47.5678 25.2008 46.5998C24.3008 45.6328 24.2008 44.0488 25.2008 43.0648Z" fill="black"/>
<path fill-rule="evenodd" clip-rule="evenodd" d="M5.89941 2.63576C5.59941 8.65176 5.3 14.6678 5 20.6848C5 22.0628 3.79941 23.1268 2.39941 23.0598C0.999413 22.9918 -4.76837e-07 21.8188 -4.76837e-07 20.4398C0.3 14.4138 0.599413 8.38876 0.899414 2.36376C0.999413 0.985757 2.19961 -0.0712432 3.59961 0.00375683C4.89961 0.0787568 5.99941 1.25876 5.89941 2.63576Z" fill="black"/>
</svg>
